<?xml version="1.0" encoding="UTF-8" standalone="no"?>
<svg
   xml:space="preserve"
   width="16"
   height="16"
   version="1.1"
   id="svg6"
   sodipodi:docname="root_icon_alt2.svg"
   inkscape:version="1.1.2 (b8e25be833, 2022-02-05)"
   xmlns:inkscape="http://www.inkscape.org/namespaces/inkscape"
   xmlns:sodipodi="http://sodipodi.sourceforge.net/DTD/sodipodi-0.dtd"
   xmlns="http://www.w3.org/2000/svg"
   xmlns:svg="http://www.w3.org/2000/svg"><defs
     id="defs10" /><sodipodi:namedview
     id="namedview8"
     pagecolor="#ffffff"
     bordercolor="#666666"
     borderopacity="1.0"
     inkscape:pageshadow="2"
     inkscape:pageopacity="0.0"
     inkscape:pagecheckerboard="0"
     showgrid="false"
     inkscape:zoom="32"
     inkscape:cx="5.5"
     inkscape:cy="9.171875"
     inkscape:window-width="1920"
     inkscape:window-height="1017"
     inkscape:window-x="-8"
     inkscape:window-y="-8"
     inkscape:window-maximized="1"
     inkscape:current-layer="svg6"
     inkscape:showpageshadow="2"
     inkscape:deskcolor="#d1d1d1" /><path
     fill="none"
     stroke="#8eef97"
     stroke-width="2"
     d="M 1,4 H 15"
     id="path2625"
     sodipodi:nodetypes="cc"
     style="stroke:#e0e0e0;stroke-opacity:1" /><path
     fill="none"
     stroke="#8eef97"
     stroke-width="2"
     d="M 8,4.4375 C 8,9.021201 7.970618,11.340967 8,14"
     id="path8911"
     sodipodi:nodetypes="cc"
     style="stroke:#e0e0e0;stroke-opacity:1" /><a
     id="a317"
     transform="translate(-0.00795164,-1)"><path
       fill="none"
       stroke="#8eef97"
       stroke-width="2"
       d="M 1.5,14.000001 C 3.7544041,12.725803 4.5060301,11.076805 5,10.184269 5,10.184269 6,7.6432481 6,5.8"
       id="path314"
       sodipodi:nodetypes="ccc"
       style="stroke:#e0e0e0;stroke-opacity:1" /><path
       fill="none"
       stroke="#8eef97"
       stroke-width="2"
       d="m 14.507952,14.000001 c -2.254404,-1.274198 -3.00603,-2.923196 -3.5,-3.815732 0,0 -1,-2.5410209 -1,-4.384269"
       id="path1955"
       sodipodi:nodetypes="ccc"
       style="stroke:#e0e0e0;stroke-opacity:1" /></a><path
     fill="none"
     stroke="#8eef97"
     stroke-width="2"
     d="M 10,1.5 C 8.1375924,2.7567689 8.1375924,2.2926433 8.1375924,2.7567689 8.1375924,3.1510834 8.01463,3.6704835 7.999939,5"
     id="path2845"
     sodipodi:nodetypes="csc"
     style="stroke:#e0e0e0;stroke-opacity:1" /><path
     fill="none"
     stroke="#8eef97"
     stroke-width="2"
     d="M 5.999878,1.5 C 7.8622856,2.7567689 7.8622856,2.2926433 7.8622856,2.7567689 7.8622856,3.1510834 7.985248,3.6704835 7.999939,5"
     id="path3918"
     sodipodi:nodetypes="csc"
     style="stroke:#e0e0e0;stroke-opacity:1" /></svg>
